<svg xmlns="http://www.w3.org/2000/svg" viewBox="0 0 400 460" fill="none">
  <ellipse cx="200" cy="440" rx="130" ry="12" fill="#00000010"/>
  <path d="
    M 120 90
    L 60  110
    L 40  170
    L 85  180
    L 85  400
    L 315 400
    L 315 180
    L 360 170
    L 340 110
    L 280 90
    C 270 130 230 150 200 150
    C 170 150 130 130 120 90
    Z
  " fill="currentColor" stroke="#00000018" stroke-width="1.5"/>
  <path d="M 120 90 L 60 110 L 40 170 L 85 180 L 85 120 Z" fill="currentColor" stroke="#00000018" stroke-width="1"/>
  <path d="M 280 90 L 340 110 L 360 170 L 315 180 L 315 120 Z" fill="currentColor" stroke="#00000018" stroke-width="1"/>
  <path d="M 120 90 C 130 130 170 150 200 150 C 230 150 270 130 280 90" fill="none" stroke="#00000020" stroke-width="1.5"/>
</svg>
